<svg width="35" height="61" viewBox="0 0 35 61" fill="none" xmlns="http://www.w3.org/2000/svg">
<path d="M19.5296 23.567L23.5206 0.4021L21.3921 29.2814L14.1019 35.9789L7.76953 60.557L11.2018 40.2033L10.8293 28.7437L19.5296 23.567Z" fill="white"/>
<path d="M18.7842 12.2942L23.467 0.404541L18.7842 16.5339V22.617L5.77363 30.8968L7.58287 59.6224L0 18.5309L18.7842 12.2942Z" fill="white"/>
<path d="M15.8315 42.1772L8.62109 58.752L17.5609 40.7178L22.9886 35.5872V29.8728L15.8315 35.8176V42.1772Z" fill="white"/>
<path d="M31.6645 18.8967L24.3477 24.012V32.0307L31.3186 25.2717L31.6645 18.8967Z" fill="white"/>
<path d="M27.6182 14.3215L23.707 0.511719L29.3742 13.3077L32.7533 11.3568L32.5138 16.8715L27.3787 20.8194L27.6182 14.3215Z" fill="white"/>
<path d="M30.2247 7.8711L23.8125 0.359375L30.7568 5.75119L34.8276 4.3533L34.4019 9.3918L30.2247 11.8036V7.8711Z" fill="white"/>
</svg>
