<svg width="150" height="64" viewBox="0 0 150 64" fill="none" xmlns="http://www.w3.org/2000/svg">
<g filter="url(#filter0_d_587_29667)">
<path d="M19.5296 23.567L23.5206 0.4021L21.3921 29.2814L14.1019 35.9789L7.76953 60.557L11.2018 40.2033L10.8293 28.7437L19.5296 23.567Z" fill="black"/>
<path d="M18.7842 12.2942L23.467 0.404541L18.7842 16.5339V22.617L5.77363 30.8968L7.58287 59.6224L0 18.5309L18.7842 12.2942Z" fill="black"/>
<path d="M15.8315 42.1772L8.62109 58.752L17.5609 40.7178L22.9886 35.5872V29.8728L15.8315 35.8176V42.1772Z" fill="black"/>
<path d="M31.6645 18.8967L24.3477 24.012V32.0307L31.3186 25.2717L31.6645 18.8967Z" fill="black"/>
<path d="M27.6182 14.3215L23.707 0.511719L29.3742 13.3077L32.7533 11.3568L32.5138 16.8715L27.3787 20.8194L27.6182 14.3215Z" fill="black"/>
<path d="M30.2247 7.8711L23.8125 0.359375L30.7568 5.75119L34.8276 4.3533L34.4019 9.3918L30.2247 11.8036V7.8711Z" fill="black"/>
<path d="M52.2713 25.5693H49.178L45.54 31.6197L41.902 25.5693H38.5558L43.828 34.3239V39.1875H46.9796V34.3628L52.2713 25.5693ZM56.3246 28.5653C54.6516 28.5653 52.959 29.0127 51.8112 29.8298L52.9006 31.9504C53.6594 31.3473 54.8072 30.9777 55.9161 30.9777C57.5503 30.9777 58.3285 31.7364 58.3285 33.0398H55.9161C52.7255 33.0398 51.4221 34.3239 51.4221 36.172C51.4221 37.9813 52.8812 39.3431 55.3325 39.3431C56.8694 39.3431 57.9588 38.8373 58.523 37.884V39.1875H61.3634V33.2149C61.3634 30.0438 59.5152 28.5653 56.3246 28.5653ZM56.0912 37.3004C55.0212 37.3004 54.3792 36.7946 54.3792 36.0359C54.3792 35.3355 54.8266 34.8102 56.2468 34.8102H58.3285V35.8802C57.9783 36.8335 57.1028 37.3004 56.0912 37.3004ZM71.9114 39.1875H75.5884L70.8414 33.1566L75.1993 28.7209H71.5807L67.1451 32.9231V24.7522H64.1101V39.1875H67.1451V36.5222L68.6041 35.0826L71.9114 39.1875ZM78.3947 27.2618C79.523 27.2618 80.2818 26.5226 80.2818 25.5109C80.2818 24.5771 79.523 23.8767 78.3947 23.8767C77.2663 23.8767 76.5076 24.616 76.5076 25.5693C76.5076 26.5226 77.2663 27.2618 78.3947 27.2618ZM76.8772 39.1875H79.9121V28.7209H76.8772V39.1875ZM92.281 25.5693V30.9387H86.0944V25.5693H82.9428V39.1875H86.0944V33.604H92.281V39.1875H95.4326V25.5693H92.281ZM103.421 39.3431C106.748 39.3431 109.16 37.1059 109.16 33.9542C109.16 30.8026 106.748 28.5653 103.421 28.5653C100.094 28.5653 97.6625 30.8026 97.6625 33.9542C97.6625 37.1059 100.094 39.3431 103.421 39.3431ZM103.421 36.8529C101.904 36.8529 100.736 35.7635 100.736 33.9542C100.736 32.1449 101.904 31.0555 103.421 31.0555C104.939 31.0555 106.086 32.1449 106.086 33.9542C106.086 35.7635 104.939 36.8529 103.421 36.8529ZM117.55 28.5653C116.13 28.5653 114.905 29.0517 114.087 29.9466V28.7209H111.189V39.1875H114.224V34.0126C114.224 32.0866 115.274 31.1917 116.733 31.1917C118.076 31.1917 118.854 31.9698 118.854 33.6624V39.1875H121.889V33.1955C121.889 30.0049 120.021 28.5653 117.55 28.5653ZM131.001 28.5653C129.581 28.5653 128.356 29.0517 127.539 29.9466V28.7209H124.64V39.1875H127.675V34.0126C127.675 32.0866 128.725 31.1917 130.184 31.1917C131.527 31.1917 132.305 31.9698 132.305 33.6624V39.1875H135.34V33.1955C135.34 30.0049 133.472 28.5653 131.001 28.5653ZM148.457 33.9931C148.457 30.6275 146.084 28.5653 143.01 28.5653C139.82 28.5653 137.427 30.822 137.427 33.9542C137.427 37.0669 139.781 39.3431 143.399 39.3431C145.286 39.3431 146.745 38.7595 147.718 37.6506L146.103 35.8997C145.384 36.5806 144.586 36.9113 143.477 36.9113C141.882 36.9113 140.773 36.1137 140.481 34.8102H148.399C148.418 34.5573 148.457 34.2266 148.457 33.9931ZM143.03 30.8609C144.391 30.8609 145.384 31.7169 145.598 33.0398H140.442C140.656 31.6975 141.648 30.8609 143.03 30.8609Z" fill="black"/>
</g>
<defs>
<filter id="filter0_d_587_29667" x="-4" y="0.359375" width="156.457" height="68.1975" filterUnits="userSpaceOnUse" color-interpolation-filters="sRGB">
<feFlood flood-opacity="0" result="BackgroundImageFix"/>
<feColorMatrix in="SourceAlpha" type="matrix" values="0 0 0 0 0 0 0 0 0 0 0 0 0 0 0 0 0 0 127 0" result="hardAlpha"/>
<feOffset dy="4"/>
<feGaussianBlur stdDeviation="2"/>
<feComposite in2="hardAlpha" operator="out"/>
<feColorMatrix type="matrix" values="0 0 0 0 0 0 0 0 0 0 0 0 0 0 0 0 0 0 0.25 0"/>
<feBlend mode="normal" in2="BackgroundImageFix" result="effect1_dropShadow_587_29667"/>
<feBlend mode="normal" in="SourceGraphic" in2="effect1_dropShadow_587_29667" result="shape"/>
</filter>
</defs>
</svg>
