<svg width="35" height="61" viewBox="0 0 35 61" fill="none" xmlns="http://www.w3.org/2000/svg">
<path d="M19.5296 23.2076L23.5206 0.0427246L21.3921 28.922L14.1019 35.6195L7.76953 60.1976L11.2018 39.8439L10.8293 28.3843L19.5296 23.2076Z" fill="black"/>
<path d="M18.7842 11.9348L23.467 0.045166L18.7842 16.1745V22.2576L5.77363 30.5374L7.58287 59.263L0 18.1715L18.7842 11.9348Z" fill="black"/>
<path d="M15.8315 41.8178L8.62109 58.3926L17.5609 40.3584L22.9886 35.2278V29.5134L15.8315 35.4582V41.8178Z" fill="black"/>
<path d="M31.6645 18.5374L24.3477 23.6527V31.6714L31.3186 24.9124L31.6645 18.5374Z" fill="black"/>
<path d="M27.6182 13.9621L23.707 0.152344L29.3742 12.9483L32.7533 10.9974L32.5138 16.5121L27.3787 20.46L27.6182 13.9621Z" fill="black"/>
<path d="M30.2247 7.51172L23.8125 0L30.7568 5.39182L34.8276 3.99392L34.4019 9.03242L30.2247 11.4442V7.51172Z" fill="black"/>
</svg>
