<svg width="149" height="61" viewBox="0 0 149 61" fill="none" xmlns="http://www.w3.org/2000/svg">
<path d="M19.5296 23.567L23.5206 0.4021L21.3921 29.2814L14.1019 35.9789L7.76953 60.557L11.2018 40.2033L10.8293 28.7437L19.5296 23.567Z" fill="#7A117E"/>
<path d="M15.8315 42.1772L8.62109 58.752L17.5609 40.7178L22.9886 35.5872V29.8728L15.8315 35.8176V42.1772Z" fill="#7A117E"/>
<path d="M31.6645 18.8967L24.3477 24.012V32.0307L31.3186 25.2717L31.6645 18.8967Z" fill="#7A117E"/>
<path d="M27.6182 14.3215L23.707 0.511719L29.3742 13.3077L32.7533 11.3568L32.5138 16.8715L27.3787 20.8194L27.6182 14.3215Z" fill="#7A117E"/>
<path d="M30.2247 7.8711L23.8125 0.359375L30.7568 5.75119L34.8276 4.3533L34.4019 9.3918L30.2247 11.8036V7.8711Z" fill="#7A117E"/>
<path d="M18.7842 12.2942L23.467 0.404541L18.7842 16.5339V22.617L5.77363 30.8968L7.58287 59.6224L0 18.5309L18.7842 12.2942Z" fill="#7A117E"/>
<path d="M52.2714 25.5693H49.1781L45.5401 31.6197L41.9021 25.5693H38.5559L43.8281 34.3239V39.1875H46.9797V34.3628L52.2714 25.5693ZM56.3247 28.5653C54.6517 28.5653 52.9591 29.0127 51.8113 29.8298L52.9007 31.9504C53.6595 31.3473 54.8073 30.9777 55.9162 30.9777C57.5504 30.9777 58.3286 31.7364 58.3286 33.0398H55.9162C52.7256 33.0398 51.4222 34.3239 51.4222 36.172C51.4222 37.9813 52.8813 39.3431 55.3326 39.3431C56.8695 39.3431 57.9589 38.8373 58.5231 37.884V39.1875H61.3635V33.2149C61.3635 30.0438 59.5153 28.5653 56.3247 28.5653ZM56.0913 37.3004C55.0213 37.3004 54.3793 36.7946 54.3793 36.0359C54.3793 35.3355 54.8267 34.8102 56.2469 34.8102H58.3286V35.8802C57.9784 36.8335 57.1029 37.3004 56.0913 37.3004ZM71.9115 39.1875H75.5885L70.8415 33.1566L75.1994 28.7209H71.5808L67.1452 32.9231V24.7522H64.1102V39.1875H67.1452V36.5222L68.6042 35.0826L71.9115 39.1875ZM78.3948 27.2618C79.5231 27.2618 80.2819 26.5226 80.2819 25.5109C80.2819 24.5771 79.5231 23.8767 78.3948 23.8767C77.2664 23.8767 76.5077 24.616 76.5077 25.5693C76.5077 26.5226 77.2664 27.2618 78.3948 27.2618ZM76.8773 39.1875H79.9122V28.7209H76.8773V39.1875ZM92.2811 25.5693V30.9387H86.0945V25.5693H82.9429V39.1875H86.0945V33.604H92.2811V39.1875H95.4327V25.5693H92.2811ZM103.421 39.3431C106.748 39.3431 109.16 37.1059 109.16 33.9542C109.16 30.8026 106.748 28.5653 103.421 28.5653C100.094 28.5653 97.6626 30.8026 97.6626 33.9542C97.6626 37.1059 100.094 39.3431 103.421 39.3431ZM103.421 36.8529C101.904 36.8529 100.736 35.7635 100.736 33.9542C100.736 32.1449 101.904 31.0555 103.421 31.0555C104.939 31.0555 106.086 32.1449 106.086 33.9542C106.086 35.7635 104.939 36.8529 103.421 36.8529ZM117.55 28.5653C116.13 28.5653 114.905 29.0517 114.087 29.9466V28.7209H111.189V39.1875H114.224V34.0126C114.224 32.0866 115.274 31.1917 116.733 31.1917C118.076 31.1917 118.854 31.9698 118.854 33.6624V39.1875H121.889V33.1955C121.889 30.0049 120.021 28.5653 117.55 28.5653ZM131.001 28.5653C129.581 28.5653 128.356 29.0517 127.539 29.9466V28.7209H124.64V39.1875H127.675V34.0126C127.675 32.0866 128.725 31.1917 130.184 31.1917C131.527 31.1917 132.305 31.9698 132.305 33.6624V39.1875H135.34V33.1955C135.34 30.0049 133.472 28.5653 131.001 28.5653ZM148.457 33.9931C148.457 30.6275 146.084 28.5653 143.01 28.5653C139.82 28.5653 137.427 30.822 137.427 33.9542C137.427 37.0669 139.781 39.3431 143.399 39.3431C145.286 39.3431 146.745 38.7595 147.718 37.6506L146.103 35.8997C145.384 36.5806 144.586 36.9113 143.477 36.9113C141.882 36.9113 140.773 36.1137 140.481 34.8102H148.399C148.418 34.5573 148.457 34.2266 148.457 33.9931ZM143.03 30.8609C144.391 30.8609 145.384 31.7169 145.598 33.0398H140.442C140.656 31.6975 141.648 30.8609 143.03 30.8609Z" fill="#7A117E"/>
</svg>
