<svg width="80" height="81" viewBox="0 0 80 81" fill="none" xmlns="http://www.w3.org/2000/svg">
<path d="M35.7926 71.3929C33.4585 67.1765 31.664 64.077 30.4091 62.0942L28.4139 58.9696L26.908 56.6731C23.6202 51.5532 20.1944 47.3243 16.6305 43.9863C18.6634 42.3047 20.5583 41.464 22.3151 41.464C24.4735 41.464 26.3935 42.2545 28.075 43.8357C29.7566 45.4168 31.8773 48.4286 34.4373 52.8708C37.3486 43.409 41.0505 34.4366 45.543 25.9536C48.0277 21.3356 50.2363 18.2361 52.1688 16.6549C54.1264 15.0487 56.7115 14.2456 59.924 14.2456C61.6306 14.2456 63.7388 14.5091 66.2486 15.0361C59.7985 20.2313 54.6409 26.4054 50.7759 33.5582C46.9108 40.711 41.9164 53.3226 35.7926 71.3929Z" fill="#00C04D"/>
</svg>
