<svg width="80" height="80" viewBox="0 0 80 80" fill="none" xmlns="http://www.w3.org/2000/svg">
<rect width="80" height="80" rx="40" fill="#00C04D"/>
<g clip-path="url(#clip0_717_29716)">
<path fill-rule="evenodd" clip-rule="evenodd" d="M56.22 40.11C56.22 49.0074 49.0082 56.22 40.11 56.22C31.2117 56.22 24 49.0074 24 40.11C24 31.2125 31.2117 24 40.11 24C49.0082 24 56.22 31.2125 56.22 40.11ZM37.6117 45.859C37.6809 45.8713 37.7501 45.8775 37.8225 45.8775C38.1435 45.8775 38.4487 45.7485 38.6752 45.5231L47.8095 36.3889C48.1366 36.062 48.2343 35.5857 48.1052 35.1688C48.0485 34.9895 47.9511 34.8216 47.8095 34.6811C47.3437 34.2139 46.5698 34.2139 46.101 34.6811L37.8225 42.9615L34.116 39.2565C33.6503 38.7893 32.8762 38.7893 32.4074 39.2565C31.9417 39.7234 31.9417 40.4966 32.4074 40.9638L36.9667 45.5231C37.1429 45.6989 37.3694 45.8162 37.6117 45.859Z" fill="white"/>
</g>
<defs>
<clipPath id="clip0_717_29716">
<rect width="32.22" height="32.22" fill="white" transform="translate(24 24)"/>
</clipPath>
</defs>
</svg>
