<svg width="80" height="80" viewBox="0 0 80 80" fill="none" xmlns="http://www.w3.org/2000/svg">
<rect width="80" height="80" rx="40" fill="#FF9C08"/>
<g clip-path="url(#clip0_717_29735)">
<path fill-rule="evenodd" clip-rule="evenodd" d="M55.1153 45.6183L45.2423 27.8425C43.9131 25.4511 42.0779 24.1394 40.0556 24.1394C38.0364 24.1394 36.198 25.4511 34.872 27.8425L24.996 45.6183C23.7453 47.8865 23.6066 50.0624 24.6102 51.775C25.6138 53.4879 27.5878 54.429 30.1796 54.429H49.9316C52.5234 54.429 54.5005 53.4879 55.501 51.775C56.5046 50.0624 56.3659 47.8711 55.1153 45.6183ZM40.0556 43.8131C39.4228 43.8131 38.8983 43.2883 38.8983 42.6558V34.9406C38.8983 34.3081 39.4228 33.7834 40.0556 33.7834C40.4504 33.7834 40.8061 33.9887 41.0139 34.2968C41.1405 34.4818 41.2128 34.7037 41.2128 34.9406V42.6558C41.2128 43.2883 40.6885 43.8131 40.0556 43.8131ZM39.7482 48.7971C39.8537 48.8125 39.9622 48.8279 40.0556 48.8279C40.1491 48.8279 40.2575 48.8125 40.348 48.7971C40.4564 48.7816 40.5498 48.7508 40.6433 48.7048C40.7337 48.6738 40.8271 48.6275 40.9206 48.5658L41.1527 48.3805C41.4298 48.0873 41.5986 47.6861 41.5986 47.2849C41.5986 46.8837 41.4298 46.4825 41.1527 46.1894L40.9206 46.0045C40.8271 45.9426 40.7337 45.8963 40.6433 45.8655C40.5498 45.819 40.4564 45.7882 40.348 45.7727C40.164 45.7264 39.9471 45.7264 39.7482 45.7727C39.6548 45.7882 39.5613 45.819 39.468 45.8655C39.3775 45.8963 39.2841 45.9426 39.1907 46.0045L38.9586 46.1894C38.6813 46.4825 38.5126 46.8837 38.5126 47.2849C38.5126 47.6861 38.6813 48.0873 38.9586 48.3805L39.1907 48.5658C39.2449 48.6023 39.2991 48.6335 39.3534 48.6596L39.468 48.7048C39.5252 48.733 39.5825 48.7556 39.6397 48.7722L39.7482 48.7971Z" fill="white"/>
</g>
<defs>
<clipPath id="clip0_717_29735">
<rect width="32.4037" height="30.8607" fill="white" transform="translate(23.9463 24.1394)"/>
</clipPath>
</defs>
</svg>
