<svg width="80" height="80" viewBox="0 0 80 80" fill="none" xmlns="http://www.w3.org/2000/svg">
<path d="M43.3666 9.7334L63.0332 18.4667C68.6999 20.9667 68.6999 25.1001 63.0332 27.6001L43.3666 36.3334C41.1332 37.3334 37.4666 37.3334 35.2332 36.3334L15.5667 27.6001C9.89998 25.1001 9.89998 20.9667 15.5667 18.4667L35.2332 9.7334C37.4666 8.7334 41.1332 8.7334 43.3666 9.7334Z" stroke="black" stroke-width="5.01905" stroke-linecap="round" stroke-linejoin="round"/>
<path opacity="0.4" d="M9.99988 36.6667C9.99988 39.4667 12.0999 42.7001 14.6665 43.8334L37.2999 53.9001C39.0332 54.6667 40.9999 54.6667 42.6999 53.9001L65.3332 43.8334C67.8999 42.7001 69.9999 39.4667 69.9999 36.6667" stroke="black" stroke-width="5.01905" stroke-linecap="round" stroke-linejoin="round"/>
<path opacity="0.4" d="M9.99988 53.3335C9.99988 56.4335 11.8332 59.2335 14.6665 60.5002L37.2999 70.5668C39.0332 71.3335 40.9999 71.3335 42.6999 70.5668L65.3332 60.5002C68.1665 59.2335 69.9999 56.4335 69.9999 53.3335" stroke="black" stroke-width="5.01905" stroke-linecap="round" stroke-linejoin="round"/>
</svg>
