<svg width="80" height="80" viewBox="0 0 80 80" fill="none" xmlns="http://www.w3.org/2000/svg">
<path opacity="0.4" d="M36.6667 6.66675H30.0001C13.3334 6.66675 6.66675 13.3334 6.66675 30.0001V50.0001C6.66675 66.6667 13.3334 73.3334 30.0001 73.3334H50.0001C66.6667 73.3334 73.3334 66.6667 73.3334 50.0001V43.3334" stroke="black" stroke-width="4.81016" stroke-linecap="round" stroke-linejoin="round"/>
<path d="M53.4665 10.0675L27.1997 36.3341C26.1997 37.3341 25.1997 39.3008 24.9997 40.7341L23.5664 50.7675C23.0331 54.4008 25.5997 56.9341 29.2331 56.4341L39.2665 55.0008C40.6665 54.8008 42.6331 53.8008 43.6665 52.8008L69.9331 26.5342C74.4665 22.0008 76.5998 16.7342 69.9331 10.0675C63.2665 3.40084 57.9998 5.53418 53.4665 10.0675Z" stroke="black" stroke-width="4.81016" stroke-miterlimit="10" stroke-linecap="round" stroke-linejoin="round"/>
<path opacity="0.4" d="M49.6997 13.8347C51.933 21.8014 58.1664 28.0347 66.1664 30.3014" stroke="black" stroke-width="4.81016" stroke-miterlimit="10" stroke-linecap="round" stroke-linejoin="round"/>
</svg>
