<svg width="24" height="24" viewBox="0 0 24 24" fill="none" xmlns="http://www.w3.org/2000/svg">
<path d="M9 10C10.1046 10 11 9.10457 11 8C11 6.89543 10.1046 6 9 6C7.89543 6 7 6.89543 7 8C7 9.10457 7.89543 10 9 10Z" stroke="#292D32" stroke-width="1.5" stroke-linecap="round" stroke-linejoin="round"/>
<path d="M13 2H9C4 2 2 4 2 9V15C2 20 4 22 9 22H15C20 22 22 20 22 15V10" stroke="#292D32" stroke-width="1.5" stroke-linecap="round" stroke-linejoin="round"/>
<path d="M2.66992 18.9501L7.59992 15.6401C8.38992 15.1101 9.52992 15.1701 10.2399 15.7801L10.5699 16.0701C11.3499 16.7401 12.6099 16.7401 13.3899 16.0701L17.5499 12.5001C18.3299 11.8301 19.5899 11.8301 20.3699 12.5001L21.9999 13.9001" stroke="#292D32" stroke-width="1.5" stroke-linecap="round" stroke-linejoin="round"/>
<path d="M18.5138 4.72471C19.2362 5.67443 19.0524 7.02699 18.1031 7.74568C17.1539 8.46437 15.8009 8.28423 15.0822 7.33502C14.3635 6.38581 14.5436 5.03275 15.4928 4.31405" stroke="#292D32" stroke-width="1.1" stroke-linecap="round" stroke-linejoin="round"/>
<path d="M17.4704 5.518C16.7191 4.5303 16.911 3.11828 17.8992 2.36326C18.8874 1.60824 20.2989 1.8039 21.054 2.79211C21.809 3.78031 21.6133 5.19182 20.6251 5.94684" stroke="#292D32" stroke-width="1.1" stroke-linecap="round" stroke-linejoin="round"/>
</svg>
