<svg width="80" height="80" viewBox="0 0 80 80" fill="none" xmlns="http://www.w3.org/2000/svg">
<path d="M30.0003 73.3332H50.0003C66.667 73.3332 73.3337 66.6665 73.3337 49.9998V29.9998C73.3337 13.3332 66.667 6.6665 50.0003 6.6665H30.0003C13.3337 6.6665 6.66699 13.3332 6.66699 29.9998V49.9998C6.66699 66.6665 13.3337 73.3332 30.0003 73.3332Z" stroke="black" stroke-width="5.01802" stroke-linecap="round" stroke-linejoin="round"/>
<path opacity="0.4" d="M30.0003 33.3336C33.6823 33.3336 36.667 30.3488 36.667 26.6669C36.667 22.985 33.6823 20.0002 30.0003 20.0002C26.3184 20.0002 23.3336 22.985 23.3336 26.6669C23.3336 30.3488 26.3184 33.3336 30.0003 33.3336Z" stroke="black" stroke-width="5.01802" stroke-linecap="round" stroke-linejoin="round"/>
<path opacity="0.4" d="M8.90015 63.1667L25.3335 52.1334C27.9668 50.3667 31.7668 50.5667 34.1333 52.6L35.2333 53.5667C37.8333 55.8 42.0333 55.8 44.6333 53.5667L58.5 41.6667C61.1 39.4334 65.3 39.4334 67.9 41.6667L73.3333 46.3334" stroke="black" stroke-width="5.01802" stroke-linecap="round" stroke-linejoin="round"/>
</svg>
