<svg width="80" height="80" viewBox="0 0 80 80" fill="none" xmlns="http://www.w3.org/2000/svg">
<path d="M65.9656 49.7644C59.099 56.5977 49.2656 58.6977 40.6323 55.9977L24.9322 71.6644C23.7988 72.831 21.5655 73.531 19.9655 73.2977L12.6988 72.2977C10.2988 71.9644 8.06549 69.6977 7.69882 67.2977L6.69882 60.031C6.46549 58.431 7.23215 56.1977 8.33215 55.0644L23.9988 39.3977C21.3322 30.7311 23.3988 20.8978 30.2655 14.0645C40.099 4.23112 56.0656 4.23112 65.9323 14.0645C75.7989 23.8978 75.7989 39.931 65.9656 49.7644Z" stroke="#292D32" stroke-width="4.81016" stroke-miterlimit="10" stroke-linecap="round" stroke-linejoin="round"/>
<path opacity="0.4" d="M22.9656 58.3008L30.6322 65.9674" stroke="#292D32" stroke-width="4.81016" stroke-miterlimit="10" stroke-linecap="round" stroke-linejoin="round"/>
<path opacity="0.4" d="M48.3334 36.6667C51.0947 36.6667 53.3334 34.4281 53.3334 31.6667C53.3334 28.9053 51.0947 26.6667 48.3334 26.6667C45.572 26.6667 43.3334 28.9053 43.3334 31.6667C43.3334 34.4281 45.572 36.6667 48.3334 36.6667Z" stroke="#292D32" stroke-width="4.81016" stroke-linecap="round" stroke-linejoin="round"/>
</svg>
