<svg width="80" height="80" viewBox="0 0 80 80" fill="none" xmlns="http://www.w3.org/2000/svg">
<path d="M56.6667 33.3334H63.3334C70.0001 33.3334 73.3334 30.0001 73.3334 23.3334V16.6667C73.3334 10.0001 70.0001 6.66675 63.3334 6.66675H56.6667C50.0001 6.66675 46.6667 10.0001 46.6667 16.6667V23.3334C46.6667 30.0001 50.0001 33.3334 56.6667 33.3334Z" stroke="#292D32" stroke-width="5.0259" stroke-miterlimit="10" stroke-linecap="round" stroke-linejoin="round"/>
<path d="M16.6667 73.3332H23.3334C30.0001 73.3332 33.3334 69.9998 33.3334 63.3332V56.6665C33.3334 49.9998 30.0001 46.6665 23.3334 46.6665H16.6667C10.0001 46.6665 6.66675 49.9998 6.66675 56.6665V63.3332C6.66675 69.9998 10.0001 73.3332 16.6667 73.3332Z" stroke="#292D32" stroke-width="5.0259" stroke-miterlimit="10" stroke-linecap="round" stroke-linejoin="round"/>
<path opacity="0.34" d="M20.0001 33.3334C27.3639 33.3334 33.3334 27.3639 33.3334 20.0001C33.3334 12.6363 27.3639 6.66675 20.0001 6.66675C12.6363 6.66675 6.66675 12.6363 6.66675 20.0001C6.66675 27.3639 12.6363 33.3334 20.0001 33.3334Z" stroke="#292D32" stroke-width="5.0259" stroke-miterlimit="10" stroke-linecap="round" stroke-linejoin="round"/>
<path opacity="0.34" d="M60.0001 73.3332C67.3637 73.3332 73.3334 67.3635 73.3334 59.9998C73.3334 52.6362 67.3637 46.6665 60.0001 46.6665C52.6364 46.6665 46.6667 52.6362 46.6667 59.9998C46.6667 67.3635 52.6364 73.3332 60.0001 73.3332Z" stroke="#292D32" stroke-width="5.0259" stroke-miterlimit="10" stroke-linecap="round" stroke-linejoin="round"/>
</svg>
