<svg width="80" height="80" viewBox="0 0 80 80" fill="none" xmlns="http://www.w3.org/2000/svg">
<path d="M48.44 31.5733L31.5733 48.4399C30.4659 47.3325 29.5874 46.0177 28.988 44.5707C28.3886 43.1237 28.0801 41.5728 28.0801 40.0066C28.0801 38.4404 28.3886 36.8895 28.988 35.4425C29.5874 33.9955 30.4659 32.6808 31.5733 31.5733C32.6808 30.4658 33.9956 29.5873 35.4426 28.9879C36.8896 28.3886 38.4405 28.0801 40.0067 28.0801C41.5729 28.0801 43.1238 28.3886 44.5708 28.9879C46.0178 29.5873 47.3325 30.4658 48.44 31.5733Z" stroke="black" stroke-width="4.8" stroke-linecap="round" stroke-linejoin="round"/>
<path d="M59.4 19.2333C53.5667 14.8333 46.9 12.4333 40 12.4333C28.2333 12.4333 17.2667 19.3667 9.63333 31.3667C6.63333 36.0667 6.63333 43.9667 9.63333 48.6667C12.2667 52.8 15.3333 56.3667 18.6667 59.2334" stroke="black" stroke-width="4.8" stroke-linecap="round" stroke-linejoin="round"/>
<path opacity="0.4" d="M28.0733 65.1C31.8733 66.7 35.9067 67.5667 40.0067 67.5667C51.7733 67.5667 62.74 60.6334 70.3733 48.6334C73.3733 43.9334 73.3733 36.0333 70.3733 31.3333C69.2733 29.6 68.0733 27.9667 66.84 26.4333" stroke="black" stroke-width="4.8" stroke-linecap="round" stroke-linejoin="round"/>
<path opacity="0.4" d="M51.7033 42.3333C51.2518 44.6585 50.1156 46.7957 48.4407 48.4706C46.7658 50.1455 44.6286 51.2817 42.3033 51.7333" stroke="black" stroke-width="4.8" stroke-linecap="round" stroke-linejoin="round"/>
<path d="M31.5667 48.4367L6.66666 73.3367M73.3367 6.66675L48.4367 31.5667" stroke="black" stroke-width="4.8" stroke-linecap="round" stroke-linejoin="round"/>
</svg>
