<svg width="67" height="67" viewBox="0 0 67 67" fill="none" xmlns="http://www.w3.org/2000/svg">
<path d="M25.125 61.4166H41.875C55.8333 61.4166 61.4167 55.8333 61.4167 41.8749V25.1249C61.4167 11.1666 55.8333 5.58325 41.875 5.58325H25.125C11.1667 5.58325 5.58333 11.1666 5.58333 25.1249V41.8749C5.58333 55.8333 11.1667 61.4166 25.125 61.4166Z" stroke="black" stroke-width="3.81" stroke-linecap="round" stroke-linejoin="round"/>
<g opacity="0.4">
<path d="M43.4663 51.6515V40.764M43.4663 20.798V15.3542M43.4663 20.798C44.4194 20.798 45.3605 20.9857 46.2411 21.3505C47.1217 21.7153 47.9219 22.2499 48.5959 22.9239C49.2699 23.5979 49.8045 24.3981 50.1693 25.2787C50.5341 26.1593 50.7218 27.1032 50.7218 28.0563C50.7218 29.0095 50.5341 29.9534 50.1693 30.834C49.8045 31.7146 49.2699 32.5147 48.5959 33.1887C47.9219 33.8627 47.1217 34.3974 46.2411 34.7622C45.3605 35.1269 44.4166 35.3147 43.4635 35.3147C41.5384 35.3147 39.6922 34.5499 38.331 33.1887C36.9698 31.8275 36.2051 29.9814 36.2051 28.0563C36.2051 26.1313 36.9698 24.2851 38.331 22.9239C39.6922 21.5627 41.5412 20.798 43.4663 20.798ZM23.5338 51.6459V46.2022M23.5338 26.2417V15.3542M23.5338 46.2077C24.4869 46.2077 25.4308 46.02 26.3114 45.6552C27.192 45.2905 27.9922 44.7558 28.6662 44.0818C29.3402 43.4078 29.8748 42.6077 30.2396 41.7271C30.6043 40.8464 30.7921 39.9026 30.7921 38.9494C30.7921 37.9962 30.6043 37.0524 30.2396 36.1718C29.8748 35.2911 29.3402 34.491 28.6662 33.817C27.9922 33.143 27.192 32.6084 26.3114 32.2436C25.4308 31.8788 24.4869 31.6911 23.5338 31.6911C21.6087 31.6911 19.7625 32.4558 18.4013 33.817C17.0401 35.1782 16.2754 37.0244 16.2754 38.9494C16.2754 40.8744 17.0401 42.7206 18.4013 44.0818C19.7625 45.443 21.6087 46.2077 23.5338 46.2077Z" stroke="black" stroke-width="3.81" stroke-miterlimit="10" stroke-linecap="round" stroke-linejoin="round"/>
</g>
</svg>
