<svg width="43" height="43" viewBox="0 0 43 43" fill="none" xmlns="http://www.w3.org/2000/svg">
<path d="M21.0513 0C32.6996 0 42.1025 9.4029 42.1025 21.0513C42.1025 32.6996 32.6996 42.1025 21.0513 42.1025C9.4029 42.1025 0 32.6996 0 21.0513C0 9.4029 9.4029 0 21.0513 0Z" fill="#FFDD67"/>
<path d="M23.7162 12.9816C22.1725 13.7534 19.8568 13.7534 18.3131 12.9816C16.6992 12.1395 14.6642 11.5781 12.2082 11.3676C9.82241 11.1571 4.84028 11.1571 2.3843 12.0693C2.10361 12.1395 1.82293 12.2799 1.54224 12.4202C1.47207 12.4904 1.4019 12.5605 1.4019 12.8412V13.1921C1.4019 13.8938 1.33173 13.6131 1.82293 13.8938C2.80532 14.4551 3.36669 15.9287 3.64737 17.9637C4.0684 20.9109 5.54198 22.8055 7.85762 23.6475C10.0329 24.4896 12.4889 24.4194 14.6642 23.5774C15.8571 23.0862 16.9097 22.3845 17.7517 21.1214C19.2253 19.0163 18.7341 17.683 19.506 15.8586C20.1375 14.2446 21.962 14.2446 22.6637 15.8586C23.4356 17.683 22.9444 19.0163 24.418 21.1214C25.26 22.3143 26.3126 23.0862 27.5055 23.5774C29.6808 24.4194 32.1368 24.4896 34.3121 23.6475C36.6979 22.7353 38.1013 20.9109 38.5223 17.9637C38.803 15.9287 39.3644 14.4551 40.3467 13.8938C40.8379 13.6131 40.7678 13.8938 40.7678 13.1921V12.8412C40.7678 12.5605 40.7678 12.4904 40.5573 12.4202C40.2766 12.2799 39.9959 12.1395 39.7152 12.0693C37.1891 11.1571 32.2069 11.1571 29.8913 11.3676C27.4353 11.5781 25.4003 12.1395 23.7162 12.9816Z" fill="#494949"/>
<path d="M29.8928 28.2789C24.209 32.2786 17.8936 32.2085 12.2097 28.2789C11.508 27.7877 10.9467 28.6298 11.3677 29.4016C13.122 32.2085 16.5603 34.8048 21.0513 34.8048C25.5422 34.8048 28.9806 32.2787 30.7348 29.4016C31.1559 28.6298 30.5945 27.7877 29.8928 28.2789Z" fill="#664E27"/>
</svg>
