<svg width="43" height="43" viewBox="0 0 43 43" fill="none" xmlns="http://www.w3.org/2000/svg">
<path d="M10.4545 42.1025C27.5762 42.0324 42.0314 27.507 42.1016 10.3853L-0.000965118 0L10.4545 42.1025Z" fill="#F6DA77"/>
<path d="M9.12099 36.6292L9.40167 38.1028C22.7341 37.4011 36.6981 27.8578 38.1016 9.33271L36.6981 9.12219C34.8737 23.2967 23.3657 34.8749 9.12099 36.6292Z" fill="#860D16"/>
<path d="M9.40193 38.0326L10.3843 42.0324C27.506 42.1025 42.1016 27.507 42.1016 10.245L38.1018 9.26257C36.5581 25.7527 25.7517 36.4889 9.40193 38.0326Z" fill="#C98E52"/>
<path d="M14.243 7.8592C14.243 6.6663 14.6641 5.61374 15.5061 4.77169C15.857 4.42083 16.4183 4.42083 16.699 4.77169C17.0499 5.12254 17.0499 5.68391 16.699 5.96459C15.7166 6.94698 15.7166 8.70125 16.699 9.68365C17.1902 10.1748 17.8218 10.4555 18.5235 10.4555C19.2252 10.4555 19.8567 10.1748 20.3479 9.68365C20.6988 9.33279 21.2601 9.33279 21.5408 9.68365C21.8917 10.0345 21.8917 10.5959 21.5408 10.8766C20.6988 11.7186 19.6462 12.1396 18.4533 12.1396C17.2604 12.1396 16.2078 11.7186 15.3658 10.8766C14.7342 10.1047 14.243 8.98194 14.243 7.8592ZM28.1369 25.4721H27.786C27.5755 25.4019 27.4352 25.3318 27.2948 25.1212C27.1545 24.9107 27.1545 24.7002 27.2247 24.5599C27.365 23.9985 27.2247 23.4371 26.944 22.9459C26.6633 22.4547 26.1721 22.1039 25.6107 21.9635C24.488 21.6829 23.2951 22.4547 23.0144 23.5775C22.9442 23.9985 22.453 24.2792 22.1022 24.1388C21.6812 24.0687 21.4005 23.6477 21.5408 23.2266C21.8917 21.8232 22.9442 20.7706 24.3476 20.4198C24.909 20.2794 25.4704 20.2794 25.9616 20.4198C26.944 20.6303 27.7158 21.2618 28.2772 22.1039C28.8386 22.9459 28.9789 23.9283 28.7684 24.9107C28.6281 25.1212 28.4176 25.4019 28.1369 25.4721ZM7.78732 29.1912V28.8403C7.85749 28.6298 7.92766 28.4894 8.13817 28.4193C8.27851 28.3491 8.48903 28.2789 8.69954 28.3491C9.19074 28.4894 9.7521 28.4193 10.2433 28.1386C10.7345 27.8579 11.0854 27.4369 11.2257 26.8755C11.5064 25.8229 10.8047 24.63 9.82227 24.3494C9.47142 24.2792 9.19074 23.788 9.33108 23.4371C9.47142 23.0161 9.82227 22.8056 10.2433 22.9459C11.5064 23.2968 12.5589 24.3494 12.7695 25.6826C12.8396 26.1738 12.8396 26.7352 12.6993 27.2264C12.4888 28.1386 11.8572 28.9105 11.0854 29.3315C10.2433 29.8227 9.33108 29.8929 8.41886 29.6823C8.068 29.6823 7.85749 29.4718 7.78732 29.1912Z" fill="#83BF4F"/>
<path d="M18.1021 24.4194C15.2251 25.4018 12.1375 23.858 11.1551 20.9108C10.1727 17.9637 11.7165 14.806 14.5935 13.8938C17.4705 12.9114 20.558 14.4551 21.5404 17.4023C22.5228 20.2793 20.9791 23.437 18.1021 24.4194ZM17.5407 33.1908C15.7864 33.7521 13.962 32.8399 13.3304 31.0856C12.7691 29.3314 13.6813 27.4367 15.4356 26.8754C17.1898 26.314 19.0143 27.2262 19.6458 28.9805C20.2072 30.6646 19.295 32.5592 17.5407 33.1908ZM30.1714 18.7356C27.8558 19.5074 25.2595 18.2444 24.4876 15.8585C23.7157 13.4727 24.9788 10.8764 27.2944 10.1045C29.6101 9.33265 32.2064 10.5957 32.9783 12.9815C33.7502 15.3673 32.4871 17.9637 30.1714 18.7356ZM5.61164 22.5248L3.92754 15.7182C5.75198 15.0867 7.92728 16.3497 8.41848 18.1742C8.97984 20.4197 7.36591 21.8932 5.61164 22.5248ZM10.5236 12.1395C8.13779 12.9815 5.4713 11.6483 4.69942 9.19231C3.85737 6.73633 5.19062 4.06984 7.6466 3.22779C10.0324 2.38574 12.6989 3.71898 13.4708 6.17497C14.2427 8.63095 12.9094 11.2974 10.5236 12.1395Z" fill="#B21725"/>
<path d="M38.1016 9.26257C38.0314 12.9816 37.3297 16.7007 35.9263 20.2092C34.593 23.7178 32.4879 27.0158 29.7512 29.6823C27.0847 32.3488 23.7867 34.4539 20.2782 35.8573C16.7696 37.2608 13.0506 37.9625 9.3315 38.0326C12.9804 37.4011 16.5591 36.4187 19.8571 34.8749C23.1552 33.3312 26.2427 31.2962 28.7688 28.6999C31.3652 26.1738 33.4001 23.0862 34.8737 19.7882C36.4876 16.4902 37.47 12.9115 38.1016 9.26257Z" fill="#E0A763"/>
<path d="M34.0774 10.1705L35.4668 11.5599L34.0774 12.9493L32.688 11.5599L34.0774 10.1705ZM30.1422 19.2408L31.5316 20.6302L30.1422 22.0196L28.7528 20.6302L30.1422 19.2408ZM24.9468 7.4437L26.3362 8.83308L24.9468 10.2225L23.5574 8.83308L24.9468 7.4437ZM20.9562 12.2434L22.3455 13.6328L20.9562 15.0222L19.5668 13.6328L20.9562 12.2434ZM20.7772 24.7317L22.1666 26.1211L20.7772 27.5105L19.3878 26.1211L20.7772 24.7317ZM10.8473 32.7866L12.2367 34.176L10.8473 35.5654L9.45796 34.176L10.8473 32.7866ZM12.1729 12.1515L13.5623 13.5408L12.1729 14.9302L10.7835 13.5408L12.1729 12.1515ZM7.08478 13.1458L8.47417 14.5352L7.08478 15.9246L5.6954 14.5352L7.08478 13.1458ZM2.63735 1.43005L4.02673 2.81944L2.63735 4.20882L1.24797 2.81944L2.63735 1.43005ZM31.3464 8.18891L32.3884 9.23095L31.3464 10.273L30.3043 9.23095L31.3464 8.18891ZM23.9328 17.0178L24.9748 18.0599L23.9328 19.1019L22.8908 18.0599L23.9328 17.0178ZM23.8893 26.507L24.9313 27.5491L23.8893 28.5911L22.8473 27.5491L23.8893 26.507ZM18.129 7.8142L19.171 8.85624L18.129 9.89828L17.0869 8.85624L18.129 7.8142ZM13.9636 3.55062L15.0057 4.59266L13.9643 5.63469L12.9223 4.59266L13.9636 3.55062ZM5.27297 1.91564L6.31501 2.95767L5.27297 3.99971L4.23093 2.95767L5.27297 1.91564ZM4.7109 10.9298L5.75294 11.9718L4.7102 13.0139L3.66886 11.9718L4.7109 10.9298ZM9.58076 19.9832L10.6228 21.0253L9.58076 22.0673L8.53872 21.0253L9.58076 19.9832ZM7.7914 24.3787L8.83344 25.4208L7.7914 26.4628L6.75007 25.4208L7.7914 24.3787ZM11.8094 30.2268L12.8507 31.2688L11.8087 32.3109L10.7666 31.2688L11.8094 30.2268Z" fill="#FFAB41"/>
</svg>
