<svg width="43" height="43" viewBox="0 0 43 43" fill="none" xmlns="http://www.w3.org/2000/svg">
<path d="M6.24386 32.7699C9.0507 29.9631 9.33138 29.2613 11.0857 31.0156C12.8399 32.7699 12.1382 32.9804 9.33138 35.8574C7.22625 37.9625 4.55976 37.5415 4.55976 37.5415C4.55976 37.5415 4.13873 34.875 6.24386 32.7699Z" fill="#FF9D27"/>
<path d="M11.5756 35.6468C12.6983 32.6997 13.0492 32.3488 11.4353 31.4366C9.82133 30.5244 9.82133 31.1559 8.76876 34.1031C7.92671 36.2784 8.90911 38.2432 8.90911 38.2432C8.90911 38.2432 10.8037 37.8923 11.5756 35.6468Z" fill="#FF9D27"/>
<path d="M9.96348 32.9101C10.595 31.2962 10.595 30.9453 11.4371 31.4365C12.3493 31.9277 12.1388 32.1382 11.5072 33.7522C11.0862 34.9451 10.0337 35.2258 10.0337 35.2258C10.0337 35.2258 9.54246 34.1732 9.96348 32.9101Z" fill="#FDF516"/>
<path d="M10.5956 30.6647C9.68342 29.0508 9.33256 29.4016 6.38539 30.5244C4.21009 31.3664 3.78906 33.1909 3.78906 33.1909C3.78906 33.1909 5.75385 34.1732 7.92914 33.3312C10.8763 32.2085 11.5079 32.2085 10.5956 30.6647Z" fill="#FF9D27"/>
<path d="M9.12033 32.1383C10.7343 31.5068 11.0851 31.5068 10.5939 30.6647C10.1027 29.7525 9.89221 29.963 8.27828 30.5946C7.08537 31.0156 6.80469 32.0682 6.80469 32.0682C6.80469 32.0682 7.92742 32.5594 9.12033 32.1383Z" fill="#FDF516"/>
<path d="M8.34933 31.9979C9.89309 30.4542 10.0334 30.0331 11.0158 31.0155C11.9982 31.9979 11.5772 32.1383 10.0334 33.682C8.84053 34.8749 7.36694 34.5942 7.36694 34.5942C7.36694 34.5942 7.2266 33.1908 8.34933 31.9979Z" fill="#FDF516"/>
<path d="M11.5782 25.2614C7.2276 17.9637 0 20.981 0 20.981C0 20.981 10.3151 10.6659 17.262 17.6128L11.5782 25.2614Z" fill="#3BAACF"/>
<path d="M14.9464 19.8583L17.1919 17.6128C10.3151 10.6659 0 20.981 0 20.981C0 20.981 9.05204 14.5253 14.9464 19.8583Z" fill="#428BC1"/>
<path d="M16.8418 30.5243C24.1396 34.8749 21.1222 42.1025 21.1222 42.1025C21.1222 42.1025 31.4373 31.7874 24.4904 24.8405L16.8418 30.5243Z" fill="#3BAACF"/>
<path d="M22.2438 27.1561L24.4893 24.9106C31.4362 31.8576 21.1211 42.1727 21.1211 42.1727C21.1211 42.1727 27.5768 33.0505 22.2438 27.1561Z" fill="#428BC1"/>
<path d="M32.841 20.2794C24.631 28.4192 15.579 32.84 12.4213 29.6823C9.26358 26.5246 13.6843 17.4725 21.8242 9.26256C31.3674 -0.280685 41.9632 0.140341 41.9632 0.140341C41.9632 0.140341 42.3141 10.7361 32.841 20.2794Z" fill="#C5D0D8"/>
<path d="M30.7351 17.9637C22.5953 26.1036 14.4554 31.4366 12.5608 29.5419C10.6662 27.6473 15.9992 19.5075 24.139 11.3677C33.6823 1.82444 42.1028 0 42.1028 0C42.1028 0 40.2783 8.42051 30.7351 17.9637Z" fill="#DAE3EA"/>
<path d="M15.6486 31.9278C15.2977 32.2786 14.7364 32.2786 14.3855 31.9278L10.1753 27.7175C9.8244 27.3667 9.8244 26.7351 10.1753 26.3843L11.4383 25.1212L16.9117 30.5945L15.6486 31.9278Z" fill="#C94747"/>
<path d="M14.4554 30.6647C14.1045 31.0155 13.6835 31.1559 13.473 30.9454L11.0872 28.5596C10.8767 28.349 11.017 27.928 11.3679 27.5772L12.6309 26.3141L15.7185 29.4016L14.4554 30.6647Z" fill="#F15744"/>
<path d="M13.2623 32.4189C13.0518 32.6294 12.5606 32.6294 12.3501 32.4189L9.61343 29.6823C9.40292 29.4718 9.47309 29.0507 9.68361 28.8402L10.5257 27.9982L14.1044 31.5769L13.2623 32.4189Z" fill="#3E4347"/>
<path d="M12.6996 31.8576C12.489 32.0681 12.068 32.1383 11.9277 31.9979L10.0331 30.1033C9.89272 29.963 9.96289 29.6121 10.2436 29.4016L11.0856 28.5596L13.5416 31.0156L12.6996 31.8576Z" fill="#62727A"/>
<path d="M41.9625 0.140376C41.9625 0.140376 38.1733 3.47754e-05 33.0508 1.96482L40.138 9.05208C42.1028 3.9296 41.9625 0.140376 41.9625 0.140376Z" fill="#C94747"/>
<path d="M41.9613 0.140259C41.9613 0.140259 38.9439 0.771797 34.3828 3.36812L38.7334 7.71871C41.3297 3.15761 41.9613 0.140259 41.9613 0.140259Z" fill="#F15744"/>
<path d="M29.1218 16.4901C31.0595 16.4901 32.6304 14.9193 32.6304 12.9816C32.6304 11.0439 31.0595 9.47302 29.1218 9.47302C27.1841 9.47302 25.6133 11.0439 25.6133 12.9816C25.6133 14.9193 27.1841 16.4901 29.1218 16.4901Z" fill="#EDF4F9"/>
<path d="M29.1203 15.2972C30.3992 15.2972 31.436 14.2604 31.436 12.9815C31.436 11.7026 30.3992 10.6659 29.1203 10.6659C27.8414 10.6659 26.8047 11.7026 26.8047 12.9815C26.8047 14.2604 27.8414 15.2972 29.1203 15.2972Z" fill="#3BAACF"/>
<path d="M22.1042 23.5072C24.042 23.5072 25.6128 21.9364 25.6128 19.9987C25.6128 18.0609 24.042 16.4901 22.1042 16.4901C20.1665 16.4901 18.5957 18.0609 18.5957 19.9987C18.5957 21.9364 20.1665 23.5072 22.1042 23.5072Z" fill="#EDF4F9"/>
<path d="M22.1027 22.3143C23.3816 22.3143 24.4184 21.2775 24.4184 19.9986C24.4184 18.7197 23.3816 17.683 22.1027 17.683C20.8239 17.683 19.7871 18.7197 19.7871 19.9986C19.7871 21.2775 20.8239 22.3143 22.1027 22.3143Z" fill="#3BAACF"/>
<path d="M32.9101 3.43841C32.6996 3.64892 32.2786 3.64892 32.068 3.43841C31.8575 3.2279 31.8575 2.80687 32.068 2.59636C32.2786 2.38585 32.6996 2.38585 32.9101 2.59636C33.1206 2.80687 33.1206 3.2279 32.9101 3.43841Z" fill="white"/>
<path d="M34.1024 5.19256C34.4124 5.19256 34.6638 4.94123 34.6638 4.63119C34.6638 4.32116 34.4124 4.06982 34.1024 4.06982C33.7923 4.06982 33.541 4.32116 33.541 4.63119C33.541 4.94123 33.7923 5.19256 34.1024 5.19256Z" fill="white"/>
<path d="M35.786 6.87676C36.096 6.87676 36.3473 6.62543 36.3473 6.3154C36.3473 6.00536 36.096 5.75403 35.786 5.75403C35.4759 5.75403 35.2246 6.00536 35.2246 6.3154C35.2246 6.62543 35.4759 6.87676 35.786 6.87676Z" fill="white"/>
<path d="M37.4012 8.56084C37.7112 8.56084 37.9626 8.30951 37.9626 7.99948C37.9626 7.68944 37.7112 7.43811 37.4012 7.43811C37.0912 7.43811 36.8398 7.68944 36.8398 7.99948C36.8398 8.30951 37.0912 8.56084 37.4012 8.56084Z" fill="white"/>
<path d="M39.0848 10.1747C39.3948 10.1747 39.6462 9.9234 39.6462 9.61337C39.6462 9.30333 39.3948 9.052 39.0848 9.052C38.7748 9.052 38.5234 9.30333 38.5234 9.61337C38.5234 9.9234 38.7748 10.1747 39.0848 10.1747Z" fill="white"/>
</svg>
