<svg width="43" height="43" viewBox="0 0 43 43" fill="none" xmlns="http://www.w3.org/2000/svg">
<path d="M42.1025 21.0513C42.1025 32.6996 32.6996 42.1025 21.0513 42.1025C9.4029 42.1025 0 32.6996 0 21.0513C0 9.4029 9.4029 0 21.0513 0C32.6996 0 42.1025 9.4029 42.1025 21.0513Z" fill="#FFDD67"/>
<path d="M32.9811 25.2615C32.9811 24.7002 32.6303 23.9985 31.7181 23.788C29.2621 23.2968 25.6834 22.8757 21.0521 22.8757C16.4208 22.8757 12.8421 23.3669 10.3861 23.788C9.4739 23.9985 9.12305 24.7002 9.12305 25.2615C9.12305 30.384 13.0526 35.5065 21.0521 35.5065C29.0516 35.5065 32.9811 30.384 32.9811 25.2615Z" fill="#664E27"/>
<path d="M18.5967 17.4725C17.2634 13.8938 15.2986 12.0693 13.3339 12.0693C11.3691 12.0693 9.40428 13.8938 8.07104 17.4725C7.9307 17.8233 8.6324 18.4549 8.98326 18.104C10.2463 16.7708 11.7901 16.2094 13.3339 16.2094C14.8776 16.2094 16.4214 16.7708 17.6844 18.104C18.1055 18.4549 18.737 17.8233 18.5967 17.4725Z" fill="#664E27"/>
<path d="M33.9619 17.4725C32.6287 13.8938 30.6639 12.0693 28.6991 12.0693C26.7343 12.0693 24.7695 13.8938 23.4363 17.4725C23.2959 17.8233 23.9976 18.4549 24.3485 18.104C25.6116 16.7708 27.1553 16.2094 28.6991 16.2094C30.313 16.2094 31.7866 16.7708 33.0497 18.104C33.4005 18.4549 34.1022 17.8233 33.9619 17.4725Z" fill="#664E27"/>
<path d="M29.9628 25.4721C28.4191 25.1914 25.1912 24.7704 21.0511 24.7704C16.9111 24.7704 13.6832 25.1914 12.1394 25.4721C11.2272 25.6124 11.157 25.9633 11.2272 26.5247C11.2974 26.8053 11.2974 27.2264 11.4377 27.6474C11.5079 28.0684 11.6482 28.2789 12.35 28.2088C13.6832 28.0684 28.4893 28.0684 29.8225 28.2088C30.5242 28.2789 30.5944 28.0684 30.7347 27.6474C30.8049 27.2264 30.8751 26.8755 30.9452 26.5247C30.9452 25.9633 30.8751 25.6124 29.9628 25.4721Z" fill="white"/>
<path d="M42.1025 21.0513C42.1025 32.6996 32.6996 42.1025 21.0513 42.1025C9.4029 42.1025 0 32.6996 0 21.0513C0 9.4029 9.4029 0 21.0513 0C32.6996 0 42.1025 9.4029 42.1025 21.0513Z" fill="#FFDD67"/>
<path d="M32.9811 25.2615C32.9811 24.7002 32.6303 23.9985 31.7181 23.788C29.2621 23.2968 25.6834 22.8757 21.0521 22.8757C16.4208 22.8757 12.8421 23.3669 10.3861 23.788C9.4739 23.9985 9.12305 24.7002 9.12305 25.2615C9.12305 30.384 13.0526 35.5065 21.0521 35.5065C29.0516 35.5065 32.9811 30.384 32.9811 25.2615Z" fill="#664E27"/>
<path d="M18.5967 17.4725C17.2634 13.8938 15.2986 12.0693 13.3339 12.0693C11.3691 12.0693 9.40428 13.8938 8.07104 17.4725C7.9307 17.8233 8.6324 18.4549 8.98326 18.104C10.2463 16.7708 11.7901 16.2094 13.3339 16.2094C14.8776 16.2094 16.4214 16.7708 17.6844 18.104C18.1055 18.4549 18.737 17.8233 18.5967 17.4725Z" fill="#664E27"/>
<path d="M33.9619 17.4725C32.6287 13.8938 30.6639 12.0693 28.6991 12.0693C26.7343 12.0693 24.7695 13.8938 23.4363 17.4725C23.2959 17.8233 23.9976 18.4549 24.3485 18.104C25.6116 16.7708 27.1553 16.2094 28.6991 16.2094C30.313 16.2094 31.7866 16.7708 33.0497 18.104C33.4005 18.4549 34.1022 17.8233 33.9619 17.4725Z" fill="#664E27"/>
<path d="M29.9628 25.4721C28.4191 25.1914 25.1912 24.7704 21.0511 24.7704C16.9111 24.7704 13.6832 25.1914 12.1394 25.4721C11.2272 25.6124 11.157 25.9633 11.2272 26.5247C11.2974 26.8053 11.2974 27.2264 11.4377 27.6474C11.5079 28.0684 11.6482 28.2088 12.35 28.2088H29.8225C30.5242 28.2088 30.5944 28.0684 30.7347 27.6474C30.8049 27.2264 30.8751 26.8755 30.9452 26.5247C30.9452 25.9633 30.8751 25.6124 29.9628 25.4721Z" fill="white"/>
</svg>
