<svg width="43" height="41" viewBox="0 0 43 41" fill="none" xmlns="http://www.w3.org/2000/svg">
<path d="M0 40.7675L6.04484 38.6588L1.47606 36.5502L0 40.7675Z" fill="#F7B600"/>
<path d="M17.5025 23.4765L8.99757 14.9012L7.5918 18.8374L17.5025 23.4765Z" fill="#FFDD7D"/>
<path d="M7.59127 18.8374L6.04492 23.2656L24.8823 32.0517L25.7961 31.7705L17.502 23.4765L7.59127 18.8374Z" fill="#F7B600"/>
<path d="M4.56836 27.6938L18.6261 34.2307L24.8818 32.0517L6.04442 23.2656L4.56836 27.6938Z" fill="#FFDD7D"/>
<path d="M3.02344 32.122L12.3016 36.4799L18.6275 34.2307L4.56979 27.6938L3.02344 32.122Z" fill="#F7B600"/>
<path d="M3.02292 32.1219L1.47656 36.5501L6.04533 38.6588L12.301 36.4799L3.02292 32.1219Z" fill="#FFDD7D"/>
<path d="M21.0162 19.8214C25.7255 24.4604 28.1856 29.6618 26.4987 31.3487C24.7415 33.0357 19.5401 30.6458 14.7605 25.9365C10.0511 21.2974 7.59102 16.0961 9.27795 14.4091C11.0352 12.7222 16.2365 15.1823 21.0162 19.8214Z" fill="#493816"/>
<path d="M15.1105 8.08321C13.9859 6.46657 15.1808 5.76368 16.7272 6.04483C15.2511 4.28761 16.1649 3.02242 18.4844 3.51444C19.1873 3.65501 18.2033 4.84992 17.5707 4.84992C19.4684 6.2557 18.4141 7.80205 16.3757 7.45061C18.2033 9.91072 15.1105 9.27812 13.7048 9.41869C13.3533 11.2462 15.462 13.3549 14.7591 13.3549C13.2127 13.3549 10.6824 7.5209 15.1105 8.08321Z" fill="#42ADE2"/>
<path d="M29.8729 11.4571C28.8186 11.9491 25.8664 7.31007 29.5215 7.23978C27.4128 5.34198 27.694 4.42823 30.5055 4.35794C27.2722 1.12466 32.4033 3.61946e-05 32.8953 1.68697C33.0359 2.17899 31.349 1.26523 30.7867 2.17899C30.1541 3.23332 34.7228 5.97458 30.0135 5.76372C31.7707 7.52094 31.841 8.3644 29.0997 8.64556C29.4512 9.20787 30.5758 11.176 29.8729 11.4571Z" fill="#FF8736"/>
<path d="M31.0664 22.4221L32.1207 21.5083C32.1207 21.5083 33.1048 22.9844 33.8077 23.5467C34.37 21.0163 34.2294 19.5402 37.1112 21.2272C35.4946 16.8693 38.1656 18.4859 40.7663 19.6808C40.6257 18.5562 40.7663 18.6968 41.8909 18.3453C42.8749 22.0706 40.2039 20.946 38.0953 19.7511C39.3605 23.125 38.025 22.9141 35.354 21.7895C35.2837 23.1953 34.862 24.8119 34.0185 24.9525C33.0345 25.2336 31.0664 22.4221 31.0664 22.4221Z" fill="#ED4C5C"/>
<path d="M23.1948 12.0194C21.9296 13.7063 19.8912 14.6201 18.4152 16.0961C16.8688 17.6425 15.9551 21.8598 15.9551 21.8598C15.9551 21.8598 16.5174 17.4316 17.9935 15.7447C19.3289 14.1983 21.297 13.0737 22.3514 11.3165C24.1789 8.08321 22.4919 3.86588 20.1021 1.40578C20.5941 0.984043 21.297 0.421733 21.6485 0C23.968 2.88184 25.9361 8.43465 23.1948 12.0194Z" fill="#C28FEF"/>
<path d="M25.3739 15.6041C23.5464 16.9396 22.2109 18.9077 20.9457 20.7352C19.8211 22.3519 16.2363 24.3902 16.2363 24.3902C16.2363 24.3902 19.6102 22.0707 20.6645 20.3838C21.9297 18.2751 23.1949 16.0962 25.163 14.5498C29.0992 11.5274 34.7926 11.8085 39.2208 13.4252C38.9396 14.0578 38.4476 15.3933 38.4476 15.3933C38.4476 15.3933 29.0992 12.8629 25.3739 15.6041Z" fill="#FF8736"/>
<path d="M33.1774 15.2526C31.9825 16.799 31.4202 18.6968 30.5064 20.454C29.6629 22.0706 28.5383 23.617 26.9217 24.4604C25.0942 25.3742 21.0877 25.093 21.0877 25.093C21.0877 25.093 25.0942 25.0227 26.7811 23.8981C28.468 22.7735 29.3818 20.8054 30.0144 18.9779C31.2796 15.4635 32.8259 11.6679 36.4809 10.1215C36.6918 10.7541 37.1838 12.0896 37.1838 12.0896C37.1838 12.0896 35.1455 12.6519 33.1774 15.2526ZM0.851562 7.96015L2.83933 5.97168L4.8278 7.95945L2.84003 9.94862L0.851562 7.96015Z" fill="#42ADE2"/>
<path d="M3.63672 14.1963L5.62378 12.2085L7.61155 14.1963L5.62378 16.184L3.63672 14.1963Z" fill="#FF8736"/>
<path d="M8.68555 4.79514L10.6733 2.80737L12.6611 4.79514L10.6733 6.78291L8.68555 4.79514Z" fill="#ED4C5C"/>
<path d="M30.3691 28.6047L32.3569 26.6162L34.3447 28.6047L32.3569 30.5924L30.3691 28.6047Z" fill="#C28FEF"/>
<path d="M25.9375 35.4186L27.9253 33.4308L29.9137 35.4193L27.9253 37.407L25.9375 35.4186Z" fill="#ED4C5C"/>
<path d="M34.6387 36.9767L36.6264 34.9883L38.6142 36.9767L36.6264 38.9645L34.6387 36.9767Z" fill="#FF8736"/>
<path d="M36.6042 27.9265L38.592 25.9387L40.5797 27.9265L38.592 29.9149L36.6042 27.9265ZM33.2852 6.90448L35.2729 4.91602L37.2614 6.90448L35.2736 8.89225L33.2852 6.90448Z" fill="#42ADE2"/>
<path d="M11.9805 18.8318L13.9689 16.844L15.9567 18.8318L13.9689 20.8202L11.9805 18.8318Z" fill="#ED4C5C"/>
</svg>
