<svg width="43" height="49" viewBox="0 0 43 49" fill="none" xmlns="http://www.w3.org/2000/svg">
<path d="M41.351 19.6533C41.351 19.6533 38.9146 21.9273 34.7728 24.6073C33.6358 18.0291 30.4686 9.90788 24.2964 0C24.2964 0 22.2661 10.6388 15.5255 20.6279C12.6019 16.08 11.3025 12.5067 11.3025 12.5067C-9.81264 33.703 7.72917 48.7273 18.774 48.7273C32.9049 48.7273 45.3304 41.9055 41.351 19.6533Z" fill="#FF9D33"/>
<path d="M32.9836 38.4945C34.2018 35.8145 35.0951 32.3224 35.2575 27.937C35.2575 27.937 33.5521 29.3988 30.6284 31.2667C29.8163 26.8812 27.6236 21.5212 23.3194 14.8618C23.3194 14.8618 21.9387 21.9273 17.2284 28.6679C15.1981 25.663 14.3048 23.2267 14.3048 23.2267C10.8127 28.7491 9.43208 33.1345 9.35087 36.6267C7.40178 35.8958 6.18359 35.3273 6.18359 35.3273C9.51329 45.2352 16.4163 47.4279 19.5024 47.4279C25.0248 47.4279 30.6284 45.8036 36.1509 37.9261C36.1509 37.8448 34.9327 38.1697 32.9836 38.4945Z" fill="#FFCE31"/>
<path d="M12.8438 34.0278C12.8438 34.0278 15.1178 37.1139 16.8232 36.383C16.8232 36.383 20.0717 31.2666 24.782 28.4242C24.782 28.4242 23.8075 36.2206 24.9444 37.6012C26.4062 39.469 30.3856 35.5709 30.3856 35.5709C30.3856 40.2 25.3505 45.966 20.8026 45.966C16.4172 45.966 10.0826 40.9309 12.8438 34.0278Z" fill="#FFDF85"/>
<path d="M35.5027 13.0751C37.2081 10.6388 38.3451 8.03997 38.3451 8.03997C41.1875 12.7503 39.482 15.5927 38.2639 16.486C36.5584 17.7854 33.5536 15.9175 35.5027 13.0751ZM4.47962 12.263C2.77417 9.42058 2.61174 5.84724 2.61174 5.84724C-1.44886 11.9382 0.0941681 15.3491 1.47477 16.3236C3.26144 17.7042 6.3475 15.5927 4.47962 12.263ZM13.9002 5.92846C14.1439 3.97936 13.3317 2.03027 13.3317 2.03027C17.1487 4.54785 17.1487 6.65936 16.6614 7.5527C15.9305 8.60846 13.6566 8.12118 13.9002 5.92846Z" fill="#FF9D33"/>
</svg>
