<svg width="43" height="43" viewBox="0 0 43 43" fill="none" xmlns="http://www.w3.org/2000/svg">
<path d="M42.1013 21.0551C42.1013 32.6912 32.7083 42.0842 21.0721 42.0842C9.436 42.0842 0.0429688 32.6912 0.0429688 21.0551C0.0429688 9.41891 9.436 0.0258789 21.0721 0.0258789C32.7083 0.0258789 42.1013 9.41891 42.1013 21.0551Z" fill="#FFDD67"/>
<path d="M41.9623 7.87675C41.6118 5.98413 40.5604 4.44199 38.808 3.95131C36.9153 3.46063 35.233 4.1616 33.6208 5.84393C32.7095 3.32043 31.3076 1.42781 29.0644 0.446444C26.8213 -0.534917 24.5782 0.166055 23.1763 1.91849C21.7042 3.74102 21.1434 6.615 22.6856 10.3302C24.1576 13.835 30.6767 20.8447 30.887 21.055C31.1674 20.9148 38.4575 16.3585 40.2099 14.1154C41.9623 11.9424 42.3128 9.76938 41.9623 7.87675ZM18.9704 1.91849C17.5685 0.166055 15.3254 -0.534917 13.0823 0.446444C10.8392 1.42781 9.43721 3.32043 8.52594 5.84393C6.84361 4.2317 5.16127 3.46063 3.26865 4.0214C1.58631 4.51209 0.464757 6.05422 0.114271 7.94685C-0.236215 9.76938 0.184368 12.0125 1.8667 14.1855C3.68923 16.3585 10.9793 20.9148 11.2597 21.055C11.47 20.8447 17.9891 13.835 19.4611 10.3302C21.0033 6.615 20.4425 3.81111 18.9704 1.91849Z" fill="#F46767"/>
<path d="M32.9893 25.3311C32.9893 24.7703 32.6388 24.0693 31.7276 23.859C29.2742 23.3683 25.6992 22.9478 21.0728 22.9478C16.4464 22.9478 12.8714 23.4384 10.418 23.859C9.43664 24.0693 9.15625 24.7703 9.15625 25.3311C9.15625 30.4482 13.0817 35.5653 21.0728 35.5653C29.0639 35.4952 32.9893 30.3781 32.9893 25.3311Z" fill="#664E27"/>
<path d="M29.9764 25.4712C28.4342 25.1908 25.2098 24.7703 21.074 24.7703C16.9383 24.7703 13.7138 25.1908 12.1717 25.4712C11.2604 25.6114 11.1903 25.9619 11.2604 26.5227C11.3305 26.8031 11.3305 27.2237 11.4707 27.6443C11.5408 28.0648 11.681 28.2751 12.382 28.205C13.7138 28.0648 28.5043 28.0648 29.8362 28.205C30.5371 28.2751 30.6072 28.0648 30.7474 27.6443C30.8175 27.2237 30.8876 26.8732 30.9577 26.5227C30.9577 25.9619 30.8876 25.6114 29.9764 25.4712Z" fill="white"/>
</svg>
