<svg width="43" height="43" viewBox="0 0 43 43" fill="none" xmlns="http://www.w3.org/2000/svg">
<path d="M21.0513 42.1025C32.6776 42.1025 42.1025 32.6776 42.1025 21.0513C42.1025 9.42497 32.6776 0 21.0513 0C9.42497 0 0 9.42497 0 21.0513C0 32.6776 9.42497 42.1025 21.0513 42.1025Z" fill="#FFDD67"/>
<path d="M12.9812 19.297C14.9189 19.297 16.4897 17.7262 16.4897 15.7885C16.4897 13.8507 14.9189 12.2799 12.9812 12.2799C11.0435 12.2799 9.47266 13.8507 9.47266 15.7885C9.47266 17.7262 11.0435 19.297 12.9812 19.297Z" fill="#664E27"/>
<path d="M29.1199 19.297C31.0576 19.297 32.6284 17.7262 32.6284 15.7885C32.6284 13.8507 31.0576 12.2799 29.1199 12.2799C27.1822 12.2799 25.6113 13.8507 25.6113 15.7885C25.6113 17.7262 27.1822 19.297 29.1199 19.297Z" fill="#664E27"/>
<path d="M32.9792 25.2615C32.9792 24.7002 32.6283 23.9985 31.7161 23.788C29.2601 23.2968 25.6814 22.8757 21.0501 22.8757C16.4189 22.8757 12.8401 23.3669 10.3842 23.788C9.47195 23.9985 9.12109 24.7002 9.12109 25.2615C9.12109 30.384 13.0507 35.5065 21.0501 35.5065C29.0496 35.5065 32.9792 30.384 32.9792 25.2615Z" fill="#664E27"/>
<path d="M29.9628 25.4721C28.4191 25.1914 25.1912 24.7704 21.0511 24.7704C16.9111 24.7704 13.6832 25.1914 12.1394 25.4721C11.2272 25.6124 11.157 25.9633 11.2272 26.5247C11.2974 26.8053 11.2974 27.2264 11.4377 27.6474C11.5079 28.0684 11.6482 28.2789 12.35 28.2088C13.6832 28.0684 28.4893 28.0684 29.8225 28.2088C30.5242 28.2789 30.5944 28.0684 30.7347 27.6474C30.8049 27.2264 30.8751 26.8755 30.9452 26.5247C30.9452 25.9633 30.8751 25.6124 29.9628 25.4721Z" fill="white"/>
</svg>
