<svg width="80" height="80" viewBox="0 0 80 80" fill="none" xmlns="http://www.w3.org/2000/svg">
<path d="M64.3993 33.3323H15.6325C10.6992 33.3323 6.69917 29.299 6.69917 24.399V15.6323C6.69917 10.699 10.7325 6.69897 15.6325 6.69897H64.3993C69.3326 6.69897 73.3326 10.7323 73.3326 15.6323V24.399C73.3326 29.299 69.2993 33.3323 64.3993 33.3323Z" stroke="#292D32" stroke-width="4.81016" stroke-linecap="round" stroke-linejoin="round"/>
<path d="M64.3993 73.3323H15.6325C10.6992 73.3323 6.69917 69.299 6.69917 64.399V55.6323C6.69917 50.699 10.7325 46.699 15.6325 46.699H64.3993C69.3326 46.699 73.3326 50.7323 73.3326 55.6323V64.399C73.3326 69.299 69.2993 73.3323 64.3993 73.3323Z" stroke="#292D32" stroke-width="4.81016" stroke-linecap="round" stroke-linejoin="round"/>
<path opacity="0.4" d="M20 16.6665V23.3332" stroke="#292D32" stroke-width="4.81016" stroke-linecap="round" stroke-linejoin="round"/>
<path opacity="0.4" d="M33.3333 16.6665V23.3332" stroke="#292D32" stroke-width="4.81016" stroke-linecap="round" stroke-linejoin="round"/>
<path opacity="0.4" d="M20 56.6665V63.3332" stroke="#292D32" stroke-width="4.81016" stroke-linecap="round" stroke-linejoin="round"/>
<path opacity="0.4" d="M33.3333 56.6665V63.3332" stroke="#292D32" stroke-width="4.81016" stroke-linecap="round" stroke-linejoin="round"/>
<path opacity="0.4" d="M46.6666 19.9998H60" stroke="#292D32" stroke-width="4.81016" stroke-linecap="round" stroke-linejoin="round"/>
<path opacity="0.4" d="M46.6666 60H60" stroke="#292D32" stroke-width="4.81016" stroke-linecap="round" stroke-linejoin="round"/>
</svg>
