<svg width="80" height="80" viewBox="0 0 80 80" fill="none" xmlns="http://www.w3.org/2000/svg">
<path opacity="0.34" d="M39.9998 50C45.5228 50 49.9998 45.523 49.9998 40C49.9998 34.477 45.5228 30 39.9998 30C34.4768 30 29.9998 34.477 29.9998 40C29.9998 45.523 34.4768 50 39.9998 50Z" stroke="black" stroke-width="5" stroke-miterlimit="10" stroke-linecap="round" stroke-linejoin="round"/>
<path d="M6.6665 42.9332V37.0665C6.6665 33.5999 9.49984 30.7332 12.9998 30.7332C19.0332 30.7332 21.4998 26.4665 18.4665 21.2332C16.7332 18.2332 17.7665 14.3332 20.7998 12.5999L26.5665 9.29987C29.1998 7.7332 32.5998 8.66654 34.1665 11.2999L34.5332 11.9332C37.5332 17.1665 42.4665 17.1665 45.4998 11.9332L45.8665 11.2999C47.4332 8.66654 50.8332 7.7332 53.4665 9.29987L59.2332 12.5999C62.2665 14.3332 63.2998 18.2332 61.5665 21.2332C58.5332 26.4665 60.9998 30.7332 67.0332 30.7332C70.4998 30.7332 73.3665 33.5665 73.3665 37.0665V42.9332C73.3665 46.3999 70.5332 49.2665 67.0332 49.2665C60.9998 49.2665 58.5332 53.5332 61.5665 58.7665C63.2998 61.7999 62.2665 65.6665 59.2332 67.3999L53.4665 70.6999C50.8332 72.2665 47.4332 71.3332 45.8665 68.6999L45.4998 68.0665C42.4998 62.8332 37.5665 62.8332 34.5332 68.0665L34.1665 68.6999C32.5998 71.3332 29.1998 72.2665 26.5665 70.6999L20.7998 67.3999C17.7665 65.6665 16.7332 61.7665 18.4665 58.7665C21.4998 53.5332 19.0332 49.2665 12.9998 49.2665C9.49984 49.2665 6.6665 46.3999 6.6665 42.9332Z" stroke="black" stroke-width="5" stroke-miterlimit="10" stroke-linecap="round" stroke-linejoin="round"/>
</svg>
