<svg width="45" height="45" viewBox="0 0 45 45" fill="none" xmlns="http://www.w3.org/2000/svg">
<path d="M38.6241 11.4859C32.6074 10.8897 26.5547 10.5825 20.52 10.5825C16.9426 10.5825 13.3651 10.7632 9.78766 11.1246L6.10181 11.4859" stroke="black" stroke-width="2.71019" stroke-linecap="round" stroke-linejoin="round"/>
<path opacity="0.34" d="M16.0391 9.66109L16.4366 7.2942C16.7256 5.57774 16.9425 4.29492 19.9959 4.29492H24.7297C27.7832 4.29492 28.0181 5.65002 28.2891 7.31226L28.6866 9.66109" stroke="black" stroke-width="2.71019" stroke-linecap="round" stroke-linejoin="round"/>
<path d="M34.7394 17.1953L33.565 35.3897C33.3662 38.2263 33.2036 40.4306 28.1626 40.4306H16.563C11.5221 40.4306 11.3595 38.2263 11.1607 35.3897L9.98633 17.1953" stroke="black" stroke-width="2.71019" stroke-linecap="round" stroke-linejoin="round"/>
<path opacity="0.34" d="M19.3458 30.4934H25.3624" stroke="black" stroke-width="2.71019" stroke-linecap="round" stroke-linejoin="round"/>
<path opacity="0.34" d="M17.8461 23.2661H26.88" stroke="black" stroke-width="2.71019" stroke-linecap="round" stroke-linejoin="round"/>
</svg>
