<svg width="80" height="80" viewBox="0 0 80 80" fill="none" xmlns="http://www.w3.org/2000/svg">
<path opacity="0.4" d="M40.535 36.2334C40.2017 36.2001 39.8017 36.2001 39.435 36.2334C31.5018 35.9667 25.2018 29.4667 25.2018 21.4667C25.2018 13.3001 31.8018 6.66675 40.0017 6.66675C48.1683 6.66675 54.8017 13.3001 54.8017 21.4667C54.7683 29.4667 48.4683 35.9667 40.535 36.2334Z" stroke="#292D32" stroke-width="5" stroke-linecap="round" stroke-linejoin="round"/>
<path d="M23.869 48.5335C15.8023 53.9335 15.8023 62.7335 23.869 68.1002C33.0357 74.2335 48.069 74.2335 57.2357 68.1002C65.3023 62.7002 65.3023 53.9002 57.2357 48.5335C48.1023 42.4335 33.069 42.4335 23.869 48.5335Z" stroke="#292D32" stroke-width="5" stroke-linecap="round" stroke-linejoin="round"/>
</svg>
