<svg width="80" height="80" viewBox="0 0 80 80" fill="none" xmlns="http://www.w3.org/2000/svg">
<path opacity="0.4" d="M51.94 40.0066C51.94 46.6066 46.6067 51.9399 40.0067 51.9399C33.4067 51.9399 28.0734 46.6066 28.0734 40.0066C28.0734 33.4066 33.4067 28.0732 40.0067 28.0732C46.6067 28.0732 51.94 33.4066 51.94 40.0066Z" stroke="black" stroke-width="4.8" stroke-linecap="round" stroke-linejoin="round"/>
<path d="M40 67.5634C51.7667 67.5634 62.7334 60.6301 70.3667 48.6301C73.3667 43.9301 73.3667 36.0301 70.3667 31.3301C62.7334 19.3301 51.7667 12.3967 40 12.3967C28.2334 12.3967 17.2667 19.3301 9.63336 31.3301C6.63336 36.0301 6.63336 43.9301 9.63336 48.6301C17.2667 60.6301 28.2334 67.5634 40 67.5634Z" stroke="black" stroke-width="4.8" stroke-linecap="round" stroke-linejoin="round"/>
</svg>
