<svg width="24" height="24" viewBox="0 0 24 24" fill="none" xmlns="http://www.w3.org/2000/svg">
<path d="M18.04 13.55C17.62 13.96 17.38 14.55 17.44 15.18C17.53 16.26 18.52 17.05 19.6 17.05H21.5V18.24C21.5 20.31 19.81 22 17.74 22H6.26C4.19 22 2.5 20.31 2.5 18.24V11.51C2.5 9.44001 4.19 7.75 6.26 7.75H17.74C19.81 7.75 21.5 9.44001 21.5 11.51V12.95H19.48C18.92 12.95 18.41 13.17 18.04 13.55Z" stroke="black" stroke-width="1.5" stroke-linecap="round" stroke-linejoin="round"/>
<path d="M2.5 12.4098V7.83986C2.5 6.64986 3.23 5.58982 4.34 5.16982L12.28 2.16982C13.52 1.69982 14.85 2.61985 14.85 3.94985V7.74983" stroke="black" stroke-width="1.5" stroke-linecap="round" stroke-linejoin="round"/>
<path d="M22.5608 13.9702V16.0302C22.5608 16.5802 22.1208 17.0302 21.5608 17.0502H19.6008C18.5208 17.0502 17.5308 16.2602 17.4408 15.1802C17.3808 14.5502 17.6208 13.9602 18.0408 13.5502C18.4108 13.1702 18.9208 12.9502 19.4808 12.9502H21.5608C22.1208 12.9702 22.5608 13.4202 22.5608 13.9702Z" stroke="black" stroke-width="1.5" stroke-linecap="round" stroke-linejoin="round"/>
<path d="M5.79883 15.0015H8.30038C8.85423 15.0015 9.30193 15.4999 9.30193 16.003C9.30193 16.5569 8.85423 17.0046 8.30038 17.0046H5.79883V15.0015Z" stroke="black" stroke-width="0.692313" stroke-miterlimit="10" stroke-linecap="round" stroke-linejoin="round"/>
<path d="M5.79883 17H8.65577C9.28808 17 9.8004 17.4477 9.8004 18.0015C9.8004 18.5554 9.28808 19.0031 8.65577 19.0031H5.79883V17Z" stroke="black" stroke-width="0.692313" stroke-miterlimit="10" stroke-linecap="round" stroke-linejoin="round"/>
<path d="M7.54688 18.9985V20.0001" stroke="black" stroke-width="0.692313" stroke-miterlimit="10" stroke-linecap="round" stroke-linejoin="round"/>
<path d="M6.30273 18.9985V20.0001" stroke="black" stroke-width="0.692313" stroke-miterlimit="10" stroke-linecap="round" stroke-linejoin="round"/>
<path d="M7.54688 14V15.0015" stroke="black" stroke-width="0.692313" stroke-miterlimit="10" stroke-linecap="round" stroke-linejoin="round"/>
<path d="M6.30273 14V15.0015" stroke="black" stroke-width="0.692313" stroke-miterlimit="10" stroke-linecap="round" stroke-linejoin="round"/>
<path d="M6.74924 15.0015H5" stroke="black" stroke-width="0.692313" stroke-miterlimit="10" stroke-linecap="round" stroke-linejoin="round"/>
<path d="M6.74924 18.9985H5" stroke="black" stroke-width="0.692313" stroke-miterlimit="10" stroke-linecap="round" stroke-linejoin="round"/>
<path d="M7 11H14" stroke="black" stroke-width="1.5" stroke-linecap="round" stroke-linejoin="round"/>
</svg>
